<?xml version="1.0" encoding="utf-8"?>
<!-- Generator: Adobe Illustrator 24.0.1, SVG Export Plug-In . SVG Version: 6.00 Build 0)  -->
<svg version="1.1" id="Layer_1" xmlns="http://www.w3.org/2000/svg" xmlns:xlink="http://www.w3.org/1999/xlink" x="0px" y="0px"
	 viewBox="0 0 806.6 298.3" style="enable-background:new 0 0 806.6 298.3;" xml:space="preserve">
<style type="text/css">
	.st0{fill:url(#SVGID_1_);}
	.st1{fill:url(#SVGID_2_);}
	.st2{fill:url(#SVGID_3_);}
	.st3{fill:url(#SVGID_4_);}
	.st4{fill:url(#SVGID_5_);}
	.st5{fill:url(#SVGID_6_);}
	.st6{fill:url(#SVGID_7_);}
	.st7{fill:url(#SVGID_8_);}
	.st8{fill:url(#SVGID_9_);}
	.st9{fill:url(#SVGID_10_);}
	.st10{fill:url(#SVGID_11_);}
	.st11{fill:url(#SVGID_12_);}
	.st12{fill:url(#SVGID_13_);}
	.st13{fill:url(#SVGID_14_);}
	.st14{fill:url(#SVGID_15_);}
	.st15{fill:url(#SVGID_16_);}
	.st16{fill:url(#SVGID_17_);}
	.st17{fill:url(#SVGID_18_);}
	.st18{fill:url(#SVGID_19_);}
	.st19{fill:url(#SVGID_20_);}
	.st20{fill:url(#SVGID_21_);}
	.st21{fill:url(#SVGID_22_);}
	.st22{fill:url(#SVGID_23_);}
	.st23{fill:#24488F;}
</style>
<g>
	<g>
		<linearGradient id="SVGID_1_" gradientUnits="userSpaceOnUse" x1="316.4424" y1="144.0299" x2="316.4424" y2="66.6269">
			<stop  offset="0" style="stop-color:#83CEF3"/>
			<stop  offset="0.7392" style="stop-color:#345AA2"/>
			<stop  offset="1" style="stop-color:#192056"/>
		</linearGradient>
		<path class="st0" d="M291.6,82.5c-14.5,14.9-21.3,39.6-24.4,62.5h36c3.2-23.3,8.6-41.3,16.3-53.4C338,62.1,365.7,80,365.7,80
			C353.2,66.6,321.6,51.8,291.6,82.5z"/>
		<linearGradient id="SVGID_2_" gradientUnits="userSpaceOnUse" x1="299.213" y1="144.0301" x2="299.213" y2="66.6428">
			<stop  offset="0" style="stop-color:#BCE1F8"/>
			<stop  offset="0.7392" style="stop-color:#0085C8"/>
			<stop  offset="1" style="stop-color:#192056"/>
		</linearGradient>
		<path class="st1" d="M269.8,145c3.1-22.9,9.9-47.6,24.4-62.5c12.6-12.9,25.4-17.8,37.1-18.1c-12.3-0.4-26.2,4.2-39.7,18.1
			c-14.5,14.9-21.3,39.6-24.4,62.5H269.8z"/>
		<linearGradient id="SVGID_3_" gradientUnits="userSpaceOnUse" x1="446.6374" y1="197.9131" x2="446.6374" y2="70.0341">
			<stop  offset="4.585860e-02" style="stop-color:#461E5F"/>
			<stop  offset="0.223" style="stop-color:#79398C"/>
			<stop  offset="0.6039" style="stop-color:#B862A2"/>
			<stop  offset="0.8154" style="stop-color:#A9488E"/>
			<stop  offset="1" style="stop-color:#553178"/>
		</linearGradient>
		<path class="st2" d="M421.4,124.7c-19.1,79.7-38.2,49.9-44.2,48.7c0,0,5.7,26.8,29.4,25.7c35.9-3.9,39.1-40.7,50.9-73.1
			c8.3-22.8,23.8-65.2,58.6-40.6C500.9,66.3,442.6,36.5,421.4,124.7z"/>
		<g>
			<linearGradient id="SVGID_4_" gradientUnits="userSpaceOnUse" x1="433.6298" y1="196.2824" x2="433.6298" y2="71.5754">
				<stop  offset="4.585860e-02" style="stop-color:#461E5F"/>
				<stop  offset="0.223" style="stop-color:#A1599E"/>
				<stop  offset="0.6039" style="stop-color:#E288B7"/>
				<stop  offset="0.8154" style="stop-color:#BA619D"/>
				<stop  offset="1" style="stop-color:#553178"/>
			</linearGradient>
			<path class="st3" d="M423.7,124.7c10.9-45.3,31.5-59.5,51.1-60c-20.2-0.5-42,13-53.3,60c-10.4,43.2-20.7,54.2-29,55.1
				C401.1,180.7,412.4,171.9,423.7,124.7z"/>
		</g>
		<linearGradient id="SVGID_5_" gradientUnits="userSpaceOnUse" x1="364.0483" y1="67.7294" x2="364.0483" y2="195.9414">
			<stop  offset="0" style="stop-color:#5CA4DA"/>
			<stop  offset="0.1749" style="stop-color:#246EB5"/>
			<stop  offset="0.4867" style="stop-color:#4C5DA6"/>
			<stop  offset="0.8" style="stop-color:#8059A0"/>
			<stop  offset="1" style="stop-color:#A96CA9"/>
		</linearGradient>
		<path class="st4" d="M385.9,121.7c11.9,45.1,25.8,84.2,53.6,54.6c-8.8,14.7-14.2,22.9-37,22.9c-36.8,0-45.7-47.5-51.9-72.8
			c-6.7-27-28.5-65.2-62-40.6C305.1,61.2,364.2,39.7,385.9,121.7z"/>
		<linearGradient id="SVGID_6_" gradientUnits="userSpaceOnUse" x1="362.911" y1="66.0526" x2="362.911" y2="195.9851">
			<stop  offset="0" style="stop-color:#5CA4DA"/>
			<stop  offset="0.1749" style="stop-color:#4985C5"/>
			<stop  offset="0.4867" style="stop-color:#6E8EC9"/>
			<stop  offset="0.8" style="stop-color:#976AAA"/>
			<stop  offset="1" style="stop-color:#A96CA9"/>
		</linearGradient>
		<path class="st5" d="M403.9,196.9c-36.8,0-45.7-47.5-51.9-72.8c-6.6-26.9-28.3-64.8-61.5-40.9c-0.7,0.8-1.3,1.7-1.9,2.5
			c33.5-24.6,55.3,13.6,62,40.6c6.2,25.3,15.2,72.8,51.9,72.8c20.7,0,27.1-6.8,34.7-19.2C430.2,190.9,423.4,196.9,403.9,196.9z"/>
		<linearGradient id="SVGID_7_" gradientUnits="userSpaceOnUse" x1="337.7166" y1="68.2032" x2="337.7166" y2="192.2326">
			<stop  offset="0" style="stop-color:#7CC2EC"/>
			<stop  offset="0.1749" style="stop-color:#246EB5"/>
			<stop  offset="0.4867" style="stop-color:#4C5DA6"/>
			<stop  offset="0.8" style="stop-color:#8059A0"/>
			<stop  offset="1" style="stop-color:#A96CA9"/>
		</linearGradient>
		<path class="st6" d="M300.4,77.8c0,0,45.4-34.3,74.7,21.1H342C342,98.9,327.1,68.4,300.4,77.8z"/>
		<linearGradient id="SVGID_8_" gradientUnits="userSpaceOnUse" x1="396.695" y1="63.3125" x2="396.695" y2="198.4428">
			<stop  offset="0" style="stop-color:#5CA4DA"/>
			<stop  offset="0.1749" style="stop-color:#246EB5"/>
			<stop  offset="0.4867" style="stop-color:#4C5DA6"/>
			<stop  offset="0.8" style="stop-color:#8059A0"/>
			<stop  offset="1" style="stop-color:#C999C5"/>
		</linearGradient>
		<path class="st7" d="M429.3,188c0,0-42.4,28.9-65.3-23.5h33.6C397.6,164.6,405.4,196.1,429.3,188z"/>
		<linearGradient id="SVGID_9_" gradientUnits="userSpaceOnUse" x1="490.0226" y1="65.6508" x2="490.0226" y2="171.0792">
			<stop  offset="3.467790e-03" style="stop-color:#C07BB1"/>
			<stop  offset="0.1919" style="stop-color:#7F438C"/>
			<stop  offset="1" style="stop-color:#6E276F"/>
		</linearGradient>
		<path class="st8" d="M538.4,145c-3.4-23-10.6-47.9-25.4-62.9c-30.8-31.2-60.6-15.6-71.4-2.1c0,0,23.8-17.9,44.6,11.3
			c10.2,14.2,15.7,31.5,18.6,53.8H538.4z"/>
		<linearGradient id="SVGID_10_" gradientUnits="userSpaceOnUse" x1="487.3883" y1="67.9477" x2="487.3883" y2="193.0093">
			<stop  offset="3.467790e-03" style="stop-color:#D49CC6"/>
			<stop  offset="0.1919" style="stop-color:#7F438C"/>
			<stop  offset="1" style="stop-color:#472563"/>
		</linearGradient>
		<path class="st9" d="M452.3,73.7c0,0,38.1-26.3,70.2,25.2h-29.1C493.3,98.9,479.2,67,452.3,73.7z"/>
		<linearGradient id="SVGID_11_" gradientUnits="userSpaceOnUse" x1="474.0506" y1="68.4862" x2="474.0506" y2="147.3953">
			<stop  offset="3.467790e-03" style="stop-color:#D698C3"/>
			<stop  offset="0.1919" style="stop-color:#A269A1"/>
			<stop  offset="1" style="stop-color:#94487D"/>
		</linearGradient>
		<path class="st10" d="M506.4,145c-2.8-23.2-8.4-41.1-18.8-55.7c-18.1-25.3-38.3-15.2-43.4-12.1c-0.9,0.9-1.7,1.8-2.4,2.7
			c0,0,23.8-17.9,44.6,11.3c10.2,14.2,15.7,31.5,18.6,53.8H506.4z"/>
	</g>
	<g>
		<linearGradient id="SVGID_12_" gradientUnits="userSpaceOnUse" x1="100.1878" y1="154.5502" x2="366.567" y2="223.6647">
			<stop  offset="0.1749" style="stop-color:#246EB5"/>
			<stop  offset="0.4867" style="stop-color:#4C5DA6"/>
			<stop  offset="0.8" style="stop-color:#8059A0"/>
			<stop  offset="1" style="stop-color:#A96CA9"/>
		</linearGradient>
		<path class="st11" d="M215.3,190.2h0.3l-1.1,6.2h-0.3L215.3,190.2z M215.1,196.3h0.2l1.1-6.2h-0.2L215.1,196.3z M212.1,196.3
			l1.1-6.2h-0.7l-1.1,6.2H212.1z M216.2,196.3l1.1-6.2h-0.1l-1.1,6.2H216.2z M218.1,166.4h-15.5c-5.7,0-11.1,4.6-12.1,10.3l-1.6,9.3
			c-1,5.7,2.8,10.3,8.5,10.3h13.9l1.1-6.2h-13.9c-2.3,0-3.8-1.8-3.4-4.1l1.6-9.3c0.4-2.3,2.6-4.1,4.8-4.1H217c2.3,0,3.8,1.8,3.4,4.1
			l-2.1,11.9l-0.3,1.5l-1.1,6.2l-1.3,7.2h6.2l4.7-26.8C227.6,171.1,223.8,166.4,218.1,166.4z M212.4,196.3h0.5l1.1-6.2h-0.5
			L212.4,196.3z M213.3,196.3h0.4l1.1-6.2h-0.4L213.3,196.3z"/>
		<linearGradient id="SVGID_13_" gradientUnits="userSpaceOnUse" x1="108.4973" y1="122.524" x2="374.8765" y2="191.6385">
			<stop  offset="0.1749" style="stop-color:#246EB5"/>
			<stop  offset="0.4867" style="stop-color:#4C5DA6"/>
			<stop  offset="0.8" style="stop-color:#8059A0"/>
			<stop  offset="1" style="stop-color:#A96CA9"/>
		</linearGradient>
		<path class="st12" d="M332.8,175.4h-6.2l0.1-0.3h6.2L332.8,175.4z M333,174.3h-6.2l0,0.2h6.2L333,174.3z M333.2,173.4H327l0,0.1
			h6.2L333.2,173.4z M332.8,175.9h-6.2l-0.1,0.4h6.2L332.8,175.9z M332.5,177.5h-6.2l-0.1,0.7h6.2L332.5,177.5z M332.6,176.7h-6.2
			l-0.1,0.5h6.2L332.6,176.7z M314.8,166.4l-1.1,6.2h9.8h3.6h6.2h3.6h9.8l1.1-6.2H314.8z M326.1,178.3l-3.2,18h6.2l3.2-18H326.1z"/>
		<linearGradient id="SVGID_14_" gradientUnits="userSpaceOnUse" x1="102.8437" y1="144.314" x2="369.2229" y2="213.4286">
			<stop  offset="0.1749" style="stop-color:#246EB5"/>
			<stop  offset="0.4867" style="stop-color:#4C5DA6"/>
			<stop  offset="0.8" style="stop-color:#8059A0"/>
			<stop  offset="1" style="stop-color:#A96CA9"/>
		</linearGradient>
		<path class="st13" d="M240.3,175.9c-0.1,0.1-0.1,0.3-0.1,0.4h-6.2c0-0.1,0.1-0.3,0.1-0.4H240.3z M233.8,176.7
			C233.8,176.7,233.8,176.7,233.8,176.7l-0.1,0.5h6.2l0.1-0.5c0,0,0,0,0-0.1H233.8z M234.3,175.1c0,0.1-0.1,0.2-0.1,0.3h6.3
			c0.1-0.1,0.1-0.2,0.2-0.3H234.3z M239.8,178.2l0.1-0.7h-6.2l-0.1,0.7H239.8z M234.6,174.3c0,0.1-0.1,0.1-0.1,0.2h6.6
			c0.1-0.1,0.1-0.1,0.2-0.2H234.6z M259.9,166.4H246c-4.2,0-8.3,2.5-10.5,6.2h9.4h3.8h10.1c2.3,0,3.8,1.8,3.4,4.1l-3.5,19.6h6.2
			l3.5-19.6C269.4,171.1,265.5,166.4,259.9,166.4z M233.6,178.3l-3.2,18h6.2l3.2-18H233.6z M235,173.4c0,0,0,0.1-0.1,0.1h7.2
			c0.1,0,0.1-0.1,0.2-0.1H235z"/>
		<linearGradient id="SVGID_15_" gradientUnits="userSpaceOnUse" x1="97.8218" y1="163.6694" x2="364.2009" y2="232.784">
			<stop  offset="0.1749" style="stop-color:#246EB5"/>
			<stop  offset="0.4867" style="stop-color:#4C5DA6"/>
			<stop  offset="0.8" style="stop-color:#8059A0"/>
			<stop  offset="1" style="stop-color:#A96CA9"/>
		</linearGradient>
		<path class="st14" d="M174.6,190.2h0.2l-1.1,6.2h-0.2L174.6,190.2z M174.5,196.3l1.1-6.2h-0.1l-1.1,6.2H174.5z M170.5,196.3
			l1.1-6.2h-0.7l-1.1,6.2H170.5z M171.7,196.3h0.4l1.1-6.2h-0.4L171.7,196.3z M176.5,166.4H161c-5.7,0-11.1,4.6-12.1,10.3l-1.6,9.3
			c-1,5.7,2.8,10.3,8.5,10.3h13.9l1.1-6.2h-13.9c-2.3,0-3.8-1.8-3.4-4.1l1.6-9.3c0.4-2.3,2.6-4.1,4.8-4.1h15.5
			c2.3,0,3.8,1.8,3.4,4.1l-2.4,13.4h0l-1.1,6.2h0h6.2l3.5-19.6C186,171.1,182.2,166.4,176.5,166.4z M170.7,196.3h0.5l1.1-6.2h-0.5
			L170.7,196.3z M172.6,196.3h0.3l1.1-6.2h-0.3L172.6,196.3z"/>
		<linearGradient id="SVGID_16_" gradientUnits="userSpaceOnUse" x1="105.7058" y1="133.2832" x2="372.0849" y2="202.3978">
			<stop  offset="0.1749" style="stop-color:#246EB5"/>
			<stop  offset="0.4867" style="stop-color:#4C5DA6"/>
			<stop  offset="0.8" style="stop-color:#8059A0"/>
			<stop  offset="1" style="stop-color:#A96CA9"/>
		</linearGradient>
		<path class="st15" d="M281.5,184.5h-0.3l1.1-6.2h0.3L281.5,184.5z M283.5,178.3h-0.4l-1.1,6.2h0.4L283.5,178.3z M281.7,178.3h-0.2
			l-1.1,6.2h0.2L281.7,178.3z M279.7,184.5l1.1-6.2h-0.1l-1.1,6.2H279.7z M310,176.8c1-5.7-2.8-10.3-8.5-10.3H286
			c-5.7,0-11.1,4.6-12.1,10.3l-1.6,9.3c-1,5.7,2.8,10.3,8.5,10.3h24.7l1.1-6.2h-24.7c-2.3,0-3.8-1.8-3.4-4.1l0.2-1.2l0.1-0.4
			l1.1-6.2l0.1-0.6l0.2-1c0.4-2.3,2.6-4.1,4.8-4.1h15.5c2.3,0,3.8,1.8,3.4,4.1l-0.3,1.5h-18l-1.1,6.2h24.2L310,176.8z M285.3,178.3
			h-0.7l-1.1,6.2h0.7L285.3,178.3z M284.4,178.3h-0.5l-1.1,6.2h0.5L284.4,178.3z"/>
		<linearGradient id="SVGID_17_" gradientUnits="userSpaceOnUse" x1="94.4567" y1="176.6389" x2="360.8358" y2="245.7535">
			<stop  offset="0.1749" style="stop-color:#246EB5"/>
			<stop  offset="0.4867" style="stop-color:#4C5DA6"/>
			<stop  offset="0.8" style="stop-color:#8059A0"/>
			<stop  offset="1" style="stop-color:#A96CA9"/>
		</linearGradient>
		<path class="st16" d="M100.3,174.3c-0.1,0.1-0.1,0.1-0.2,0.2h-6.6c0-0.1,0.1-0.1,0.1-0.2H100.3z M92.6,178.3l-3.2,18h6.2l3.2-18
			H92.6z M94,173.4c0,0,0,0.1-0.1,0.1h7.2c0.1,0,0.1-0.1,0.2-0.1H94z M133.8,172.6h9.4c-1-3.6-4.1-6.2-8.3-6.2h-7.7
			c-2.8,0-5.6,1.1-7.7,3c-1.5-1.8-3.9-3-6.7-3H105c-4.2,0-8.3,2.5-10.5,6.2h9.4h2.6h5.1c2.3,0,3.8,1.8,3.4,4.1l-3.5,19.6h6.2
			l3.5-19.6c0.4-2.3,2.6-4.1,4.8-4.1h5.2H133.8z M92.9,176.7C92.9,176.7,92.9,176.7,92.9,176.7l-0.1,0.5H99l0.1-0.5c0,0,0,0,0-0.1
			H92.9z M93.3,175.1c0,0.1-0.1,0.2-0.1,0.3h6.3c0.1-0.1,0.1-0.2,0.2-0.3H93.3z M98.8,178.2l0.1-0.7h-6.2l-0.1,0.7H98.8z
			 M93.1,175.9c0,0.1-0.1,0.3-0.1,0.4h6.2c0-0.1,0.1-0.3,0.1-0.4H93.1z M136.1,173.4c0,0,0.1,0.1,0.1,0.1h7.2c0,0,0-0.1,0-0.1H136.1
			z M136.9,178.3l-3.2,18h6.2l3.2-18H136.9z M136.8,174.3c0,0.1,0.1,0.1,0.1,0.2h6.6c0-0.1,0-0.1,0-0.2H136.8z M137.1,175.1
			c0,0.1,0.1,0.2,0.1,0.3h6.3c0-0.1,0-0.2,0-0.3H137.1z M137.2,176.8l-0.1,0.5h6.2l0.1-0.5c0,0,0,0,0-0.1L137.2,176.8
			C137.2,176.7,137.2,176.7,137.2,176.8z M143.2,177.5h-6.2l-0.1,0.7h6.2L143.2,177.5z M137.2,175.9c0,0.1,0,0.3,0,0.4h6.2
			c0-0.1,0-0.3,0.1-0.4H137.2z"/>
	</g>
	<g>
		<linearGradient id="SVGID_18_" gradientUnits="userSpaceOnUse" x1="464.2788" y1="153.9124" x2="730.658" y2="223.027">
			<stop  offset="0.1749" style="stop-color:#246EB5"/>
			<stop  offset="0.4867" style="stop-color:#4C5DA6"/>
			<stop  offset="0.8" style="stop-color:#8059A0"/>
			<stop  offset="1" style="stop-color:#A96CA9"/>
		</linearGradient>
		<path class="st17" d="M556.5,175.6c0-0.1,0.1-0.2,0.1-0.3h6.4c-0.1,0.1-0.1,0.2-0.2,0.3H556.5z M556.8,174.7h6.6
			c0.1-0.1,0.1-0.1,0.2-0.2h-6.7C556.9,174.6,556.9,174.6,556.8,174.7z M562.3,177.5l0.1-0.5c0,0,0,0,0-0.1h-6.2c0,0,0,0,0,0.1
			l-0.1,0.5H562.3z M562.4,176.5c0-0.1,0.1-0.3,0.1-0.4h-6.2c0,0.1-0.1,0.3-0.1,0.4H562.4z M562.1,178.4l0.1-0.7H556l-0.1,0.7H562.1
			z M568.3,166.7c-4.2,0-8.3,2.5-10.5,6.2h9.4h1.2h20l1.1-6.2H568.3z M557.2,173.8h7.2c0.1,0,0.1-0.1,0.2-0.1h-7.3
			C557.3,173.7,557.3,173.7,557.2,173.8z M555.9,178.5l-3.2,18h6.2l3.2-18H555.9z"/>
		<linearGradient id="SVGID_19_" gradientUnits="userSpaceOnUse" x1="476.0836" y1="123.4414" x2="742.4627" y2="192.556">
			<stop  offset="0.1749" style="stop-color:#246EB5"/>
			<stop  offset="0.4867" style="stop-color:#4C5DA6"/>
			<stop  offset="0.8" style="stop-color:#8059A0"/>
			<stop  offset="1" style="stop-color:#A96CA9"/>
		</linearGradient>
		<path class="st18" d="M696.7,175.3h-6.2l0.1-0.3h6.2L696.7,175.3z M696.9,174.2h-6.2l0,0.2h6.2L696.9,174.2z M697.1,173.4h-6.2
			l0,0.1h6.2L697.1,173.4z M696.6,175.8h-6.2l-0.1,0.4h6.2L696.6,175.8z M696.3,177.4h-6.2l-0.1,0.7h6.2L696.3,177.4z M696.5,176.6
			h-6.2l-0.1,0.5h6.2L696.5,176.6z M678.7,166.4l-1.1,6.2h9.8h3.6h6.2h3.6h9.8l1.1-6.2H678.7z M690,178.3l-3.2,18h6.2l3.2-18H690z"
			/>
		<linearGradient id="SVGID_20_" gradientUnits="userSpaceOnUse" x1="472.0833" y1="133.8503" x2="738.4624" y2="202.9649">
			<stop  offset="0.1749" style="stop-color:#246EB5"/>
			<stop  offset="0.4867" style="stop-color:#4C5DA6"/>
			<stop  offset="0.8" style="stop-color:#8059A0"/>
			<stop  offset="1" style="stop-color:#A96CA9"/>
		</linearGradient>
		<path class="st19" d="M645.5,184.4h-0.3l1.1-6.2h0.3L645.5,184.4z M647.5,178.3h-0.4l-1.1,6.2h0.4L647.5,178.3z M645.7,178.3h-0.2
			l-1.1,6.2h0.2L645.7,178.3z M643.7,184.4l1.1-6.2h-0.1l-1.1,6.2H643.7z M674,176.7c1-5.7-2.8-10.3-8.5-10.3H650
			c-5.7,0-11.1,4.6-12.1,10.3l-1.6,9.3c-1,5.7,2.8,10.3,8.5,10.3h24.7l1.1-6.2h-24.7c-2.3,0-3.8-1.8-3.4-4.1l0.2-1.2l0.1-0.4
			l1.1-6.2l0.1-0.6l0.2-1c0.4-2.3,2.6-4.1,4.8-4.1h15.5c2.3,0,3.8,1.8,3.4,4.1l-0.3,1.5h-18l-1.1,6.2h24.2L674,176.7z M649.4,178.3
			h-0.7l-1.1,6.2h0.7L649.4,178.3z M648.4,178.3h-0.5l-1.1,6.2h0.5L648.4,178.3z"/>
		<linearGradient id="SVGID_21_" gradientUnits="userSpaceOnUse" x1="468.1932" y1="143.8346" x2="734.5723" y2="212.9492">
			<stop  offset="0.1749" style="stop-color:#246EB5"/>
			<stop  offset="0.4867" style="stop-color:#4C5DA6"/>
			<stop  offset="0.8" style="stop-color:#8059A0"/>
			<stop  offset="1" style="stop-color:#A96CA9"/>
		</linearGradient>
		<path class="st20" d="M603.9,184.4h-0.3l1.1-6.2h0.3L603.9,184.4z M605.9,178.3h-0.4l-1.1,6.2h0.4L605.9,178.3z M604.1,178.3h-0.2
			l-1.1,6.2h0.2L604.1,178.3z M602,184.4h0.1l1.1-6.2h-0.1L602,184.4z M607.8,178.3h-0.7l-1.1,6.2h0.7L607.8,178.3z M627.4,181.1
			c2-1.8,3.5-4.3,3.9-7l1.4-7.7h-6.2l-1.4,7.7c-0.4,2.3-2.6,4.1-4.8,4.1h-12.4l-1.1,6.2h12.4h0.5c2.3,0,3.8,1.8,3.4,4.1l-1.4,7.7
			h6.2l1.4-7.7C629.8,185.6,629,183,627.4,181.1z M602.2,178.3L602.2,178.3l2.1-11.9h-6.2l-5.3,29.9h6.2l2.1-11.9h0L602.2,178.3z
			 M606.8,178.3h-0.5l-1.1,6.2h0.5L606.8,178.3z"/>
		<linearGradient id="SVGID_22_" gradientUnits="userSpaceOnUse" x1="460.4862" y1="163.521" x2="726.8654" y2="232.6356">
			<stop  offset="0.1749" style="stop-color:#246EB5"/>
			<stop  offset="0.4867" style="stop-color:#4C5DA6"/>
			<stop  offset="0.8" style="stop-color:#8059A0"/>
			<stop  offset="1" style="stop-color:#A96CA9"/>
		</linearGradient>
		<path class="st21" d="M538.7,190.4h0.2l-1.1,6.2h-0.2L538.7,190.4z M538.6,196.6l1.1-6.2h-0.1l-1.1,6.2H538.6z M534.6,196.6
			l1.1-6.2H535l-1.1,6.2H534.6z M535.8,196.6h0.4l1.1-6.2h-0.4L535.8,196.6z M540.6,166.7h-15.5c-5.7,0-11.1,4.6-12.1,10.3l-1.6,9.3
			c-1,5.7,2.8,10.3,8.5,10.3h13.9l1.1-6.2H521c-2.3,0-3.8-1.8-3.4-4.1l1.6-9.3c0.4-2.3,2.6-4.1,4.8-4.1h15.5c2.3,0,3.8,1.8,3.4,4.1
			l-2.4,13.4h0l-1.1,6.2h0h6.2l3.5-19.6C550.1,171.3,546.3,166.7,540.6,166.7z M534.9,196.6h0.5l1.1-6.2h-0.5L534.9,196.6z
			 M536.7,196.6h0.3l1.1-6.2h-0.3L536.7,196.6z"/>
		<linearGradient id="SVGID_23_" gradientUnits="userSpaceOnUse" x1="455.9124" y1="176.1401" x2="722.2916" y2="245.2547">
			<stop  offset="0.1749" style="stop-color:#246EB5"/>
			<stop  offset="0.4867" style="stop-color:#4C5DA6"/>
			<stop  offset="0.8" style="stop-color:#8059A0"/>
			<stop  offset="1" style="stop-color:#A96CA9"/>
		</linearGradient>
		<path class="st22" d="M464.6,174.5c-0.1,0.1-0.1,0.1-0.2,0.2h-6.6c0-0.1,0.1-0.1,0.1-0.2H464.6z M456.8,178.5l-3.2,18h6.2l3.2-18
			H456.8z M458.3,173.7c0,0,0,0.1-0.1,0.1h7.2c0.1,0,0.1-0.1,0.2-0.1H458.3z M498,172.9h9.4c-1-3.6-4.1-6.2-8.3-6.2h-7.7
			c-2.8,0-5.6,1.1-7.7,3c-1.5-1.8-3.9-3-6.7-3h-7.7c-4.2,0-8.3,2.5-10.5,6.2h9.4h2.6h5.1c2.3,0,3.8,1.8,3.4,4.1l-3.5,19.6h6.2
			l3.5-19.6c0.4-2.3,2.6-4.1,4.8-4.1h5.2H498z M457.1,176.9C457.1,176.9,457.1,177,457.1,176.9l-0.1,0.5h6.2l0.1-0.5c0,0,0,0,0-0.1
			H457.1z M457.6,175.3c0,0.1-0.1,0.2-0.1,0.3h6.3c0.1-0.1,0.1-0.2,0.2-0.3H457.6z M463.1,178.4l0.1-0.7H457l-0.1,0.7H463.1z
			 M457.3,176.1c0,0.1-0.1,0.3-0.1,0.4h6.2c0-0.1,0.1-0.3,0.1-0.4H457.3z M500.3,173.7c0,0,0.1,0.1,0.1,0.1h7.2c0,0,0-0.1,0-0.1
			H500.3z M501.2,178.5l-3.2,18h6.2l3.2-18H501.2z M501,174.5c0,0.1,0.1,0.1,0.1,0.2h6.6c0-0.1,0-0.1,0-0.2H501z M501.4,175.3
			c0,0.1,0.1,0.2,0.1,0.3h6.3c0-0.1,0-0.2,0-0.3H501.4z M501.4,177l-0.1,0.5h6.2l0.1-0.5c0,0,0,0,0-0.1L501.4,177
			C501.4,176.9,501.4,177,501.4,177z M507.5,177.7h-6.2l-0.1,0.7h6.2L507.5,177.7z M501.5,176.1c0,0.1,0,0.3,0,0.4h6.2
			c0-0.1,0-0.3,0.1-0.4H501.5z"/>
	</g>
	<g>
		<path class="st23" d="M225.6,227c0.7,0,1.3,0.1,1.9,0.3c0.6,0.2,1,0.6,1.3,1c0.3,0.4,0.6,1,0.7,1.6c0.1,0.6,0.1,1.4-0.1,2.2
			l-2.8,14h-2.5l2.7-13.7c0.2-1.1,0.1-1.9-0.3-2.4c-0.4-0.5-1-0.7-1.7-0.7c-0.6,0-1.3,0.2-2.2,0.6c-0.8,0.4-1.7,0.8-2.5,1.2l-2,10.3
			h-2.5l2.8-14.4h2.5l-0.3,1.5c0.7-0.3,1.3-0.6,1.8-0.8c0.5-0.2,0.9-0.4,1.3-0.5c0.4-0.1,0.7-0.2,1-0.2
			C225.1,227,225.4,227,225.6,227z"/>
		<path class="st23" d="M243.4,241.6c-1.5,0-2.7-0.4-3.4-1.2c-0.7-0.8-1-2-0.7-3.6l1.5-7.4h-2.8l0.4-2.2h9.3l-0.4,2.2h-4l-1.4,6.9
			c-0.1,0.6-0.1,1.1-0.1,1.5c0.1,0.4,0.2,0.7,0.4,0.9c0.2,0.2,0.5,0.4,0.8,0.5c0.3,0.1,0.7,0.1,1.1,0.1h1.2l-0.4,2.3H243.4z"/>
		<path class="st23" d="M255.8,241.2c-1,0.3-2,0.4-2.9,0.4c-0.8,0-1.5-0.1-2.2-0.3c-0.6-0.2-1.2-0.5-1.6-0.9
			c-0.4-0.4-0.7-0.9-0.9-1.4s-0.2-1.1-0.1-1.8c0-0.2,0.1-0.5,0.2-0.8c0.1-0.3,0.3-0.6,0.5-0.9c0.2-0.3,0.5-0.6,0.8-0.8
			c0.3-0.3,0.7-0.5,1.2-0.6c-0.4-0.2-0.7-0.4-1-0.6c-0.2-0.2-0.4-0.5-0.4-0.7c-0.1-0.3-0.1-0.5-0.1-0.8c0-0.3,0-0.5,0.1-0.7
			c0.1-0.5,0.3-1,0.6-1.6c0.3-0.5,0.8-1,1.3-1.4c0.5-0.4,1.2-0.7,1.9-1c0.7-0.3,1.6-0.4,2.5-0.4s1.8,0.2,2.7,0.5
			c0.9,0.3,1.6,0.8,2.2,1.4l-1.8,1.7c-0.4-0.4-0.9-0.8-1.6-1c-0.6-0.2-1.3-0.3-1.8-0.3c-0.3,0-0.7,0-1.1,0.1
			c-0.4,0.1-0.8,0.2-1.1,0.4c-0.4,0.2-0.7,0.4-0.9,0.6c-0.3,0.3-0.4,0.6-0.5,0.9c-0.1,0.6,0,1,0.5,1.3s1.1,0.5,2.1,0.5h1.9l-0.4,1.9
			h-2.1c-0.8,0-1.5,0.2-2.2,0.5c-0.6,0.4-1,0.9-1.2,1.6c-0.1,0.4,0,0.7,0.2,1c0.2,0.3,0.5,0.5,0.8,0.7c0.3,0.2,0.7,0.3,1.1,0.3
			c0.4,0.1,0.7,0.1,1,0.1c0.6,0,1.2-0.1,1.9-0.3c0.7-0.2,1.4-0.6,2-1.1l1.2,1.9C257.7,240.5,256.8,241,255.8,241.2z"/>
		<path class="st23" d="M268.2,241.6l-2.2-5.2l-4.3,5.2h-3l6.3-7.4l-3.2-7h3l2.1,4.9l4-4.9h2.9l-6,7l3.4,7.4H268.2z"/>
		<path class="st23" d="M279,241.6h-1.9l-2.6-14.4h2.7l1.7,10.1l5.6-10.1h2.7L279,241.6z"/>
		<path class="st23" d="M297.9,238.8c-0.5,0.6-1,1.2-1.7,1.6c-0.6,0.4-1.4,0.7-2.1,1c-0.8,0.2-1.5,0.3-2.2,0.3s-1.4-0.1-2.1-0.3
			s-1.2-0.5-1.7-1c-0.5-0.4-0.8-1-1-1.6c-0.2-0.6-0.2-1.4-0.1-2.2l0.9-4.4c0.2-0.8,0.5-1.6,0.9-2.2c0.5-0.6,1-1.2,1.7-1.6
			c0.6-0.4,1.4-0.8,2.1-1c0.8-0.2,1.5-0.3,2.2-0.3c0.7,0,1.4,0.1,2.1,0.3c0.7,0.2,1.2,0.6,1.7,1c0.5,0.4,0.8,1,1,1.6
			c0.2,0.6,0.3,1.4,0.1,2.2l-0.9,4.4C298.7,237.4,298.3,238.2,297.9,238.8z M297.2,232.8c0.1-0.6,0.1-1.1,0-1.6
			c-0.1-0.4-0.3-0.8-0.6-1.1c-0.3-0.3-0.6-0.5-1-0.6c-0.4-0.1-0.8-0.2-1.2-0.2c-0.4,0-0.8,0.1-1.2,0.2c-0.4,0.1-0.8,0.3-1.2,0.6
			c-0.4,0.3-0.7,0.6-1,1.1c-0.3,0.4-0.5,1-0.6,1.6l-0.6,3.2c-0.1,0.6-0.1,1.1,0,1.6c0.1,0.4,0.3,0.8,0.6,1.1c0.3,0.3,0.6,0.5,1,0.6
			c0.4,0.1,0.8,0.2,1.2,0.2c0.4,0,0.8-0.1,1.3-0.2c0.4-0.1,0.8-0.3,1.2-0.6c0.4-0.3,0.7-0.6,1-1.1c0.3-0.4,0.5-1,0.6-1.6
			L297.2,232.8z"/>
		<path class="st23" d="M315.4,227.2c-0.2,1.1-0.5,2.4-0.8,3.8c-0.3,1.2-0.5,2.7-0.9,4.5c-0.3,1.8-0.7,3.8-1.2,6.1h-2.5l1.9-9.8
			c-0.7-0.4-1.4-0.9-2.1-1.2c-0.7-0.4-1.3-0.6-1.9-0.6c-0.7,0-1.4,0.2-2,0.7c-0.6,0.5-1,1.2-1.2,2.4l-1.7,8.6h-2.5l1.7-8.9
			c0.2-0.8,0.4-1.5,0.8-2.2c0.4-0.6,0.8-1.2,1.3-1.6c0.5-0.4,1.1-0.8,1.7-1c0.6-0.2,1.3-0.3,2-0.3c0.3,0,0.5,0,0.8,0.1
			c0.3,0,0.5,0.1,0.9,0.3c0.3,0.1,0.7,0.3,1.1,0.5c0.4,0.2,0.9,0.5,1.5,0.9l0.4-2.1c0.1-0.4,0.1-0.8,0.1-1.2c0-0.4-0.1-0.8-0.3-1.1
			c-0.2-0.3-0.5-0.6-0.8-0.8c-0.3-0.2-0.8-0.3-1.4-0.3c-0.8,0-1.5,0.1-2.2,0.4s-1.4,0.6-2,0.9l-0.7-2.1c0.5-0.3,1-0.5,1.4-0.7
			c0.5-0.2,0.9-0.4,1.3-0.5c0.4-0.1,0.9-0.2,1.4-0.3c0.5-0.1,1-0.1,1.5-0.1c0.8,0,1.4,0.1,2,0.4c0.6,0.3,1.1,0.6,1.5,1.1
			c0.4,0.5,0.6,1.1,0.8,1.8C315.6,225.4,315.6,226.2,315.4,227.2z"/>
		<path class="st23" d="M327.3,238.8c-0.5,0.6-1,1.2-1.7,1.6c-0.6,0.4-1.4,0.7-2.1,1c-0.8,0.2-1.5,0.3-2.2,0.3s-1.4-0.1-2.1-0.3
			s-1.2-0.5-1.7-1s-0.8-1-1-1.6c-0.2-0.6-0.2-1.4-0.1-2.2l0.9-4.4c0.2-0.8,0.5-1.6,0.9-2.2c0.5-0.6,1-1.2,1.7-1.6
			c0.6-0.4,1.4-0.8,2.1-1c0.8-0.2,1.5-0.3,2.2-0.3c0.7,0,1.4,0.1,2.1,0.3c0.7,0.2,1.2,0.6,1.7,1c0.5,0.4,0.8,1,1,1.6
			c0.2,0.6,0.3,1.4,0.1,2.2l-0.9,4.4C328.1,237.4,327.8,238.2,327.3,238.8z M326.6,232.8c0.1-0.6,0.1-1.1,0-1.6s-0.3-0.8-0.6-1.1
			c-0.3-0.3-0.6-0.5-1-0.6c-0.4-0.1-0.8-0.2-1.2-0.2c-0.4,0-0.8,0.1-1.2,0.2c-0.4,0.1-0.8,0.3-1.2,0.6c-0.4,0.3-0.7,0.6-1,1.1
			c-0.3,0.4-0.5,1-0.6,1.6L319,236c-0.1,0.6-0.1,1.1,0,1.6c0.1,0.4,0.3,0.8,0.6,1.1s0.6,0.5,1,0.6c0.4,0.1,0.8,0.2,1.2,0.2
			c0.4,0,0.8-0.1,1.3-0.2c0.4-0.1,0.8-0.3,1.2-0.6s0.7-0.6,1-1.1c0.3-0.4,0.5-1,0.6-1.6L326.6,232.8z"/>
		<path class="st23" d="M337,240.1l-1.4,7.2h-2.5l1.4-7.1l-1.7-8.5c-0.1-0.5-0.3-1-0.5-1.5c-0.2-0.5-0.6-0.8-1.1-0.9l1.2-2.3
			c0.7,0.1,1.2,0.4,1.7,0.8c0.5,0.4,0.8,1.1,1,2l1.4,6.9l5.5-9.6h2.6L337,240.1z"/>
		<path class="st23" d="M349.3,227.2l-1.9,10c-0.1,0.7-0.1,1.2,0.2,1.6c0.2,0.4,0.8,0.6,1.6,0.6h0.1l-0.5,2.3h-0.6
			c-0.6,0-1.1-0.1-1.6-0.3c-0.5-0.2-0.9-0.4-1.2-0.7s-0.5-0.7-0.7-1.2c-0.1-0.5-0.1-1.1,0-1.8l2-10.5H349.3z M348.9,225.4h-2
			l3.5-4.2h3L348.9,225.4z"/>
		<path class="st23" d="M360.2,241.6l0.3-1.5c-0.7,0.3-1.3,0.6-1.8,0.8s-0.9,0.4-1.3,0.5c-0.4,0.1-0.7,0.2-1,0.3
			c-0.3,0-0.6,0.1-0.8,0.1c-1.4,0-2.5-0.5-3.2-1.4c-0.7-0.9-0.9-2.2-0.6-3.8l0.9-4.4c0.3-1.6,1-2.9,2.1-3.8c1.1-0.9,2.3-1.3,3.7-1.3
			c0.5,0,1.1,0.1,1.7,0.4c0.6,0.2,1.5,0.7,2.5,1.3l0.3-1.5h2.5l-2.8,14.4H360.2z M362.3,231.1c-0.3-0.2-0.6-0.4-1-0.6
			c-0.4-0.2-0.7-0.4-1.1-0.6c-0.4-0.2-0.7-0.3-1-0.4c-0.3-0.1-0.6-0.2-0.9-0.2c-0.8,0-1.4,0.2-2,0.7c-0.6,0.5-0.9,1.3-1.2,2.4
			l-0.8,3.8c-0.2,1.1-0.1,1.9,0.3,2.4c0.4,0.5,1,0.7,1.7,0.7c0.6,0,1.3-0.2,2.1-0.5c0.8-0.3,1.7-0.7,2.5-1.2L362.3,231.1z"/>
		<path class="st23" d="M384.5,229.4c0.4,0.3,0.6,0.7,0.8,1.2c0.2,0.5,0.2,1.1,0.1,1.7l-0.8,4.3c-0.2,0.8-0.5,1.6-1,2.2
			c-0.5,0.6-1,1.2-1.7,1.6c-0.6,0.4-1.3,0.7-2.1,1c-0.8,0.2-1.5,0.3-2.2,0.3s-1.4-0.1-2.1-0.3c-0.7-0.2-1.2-0.5-1.7-1
			c-0.5-0.4-0.8-1-1-1.6c-0.2-0.6-0.2-1.4-0.1-2.2l0.8-4.3c0.2-0.8,0.5-1.6,0.9-2.2c0.4-0.6,1-1.2,1.6-1.6c0.6-0.4,1.3-0.8,2.1-1
			c0.8-0.2,1.6-0.3,2.4-0.3h7.2l-0.4,2.2H384.5z M382.8,232.8c0.1-0.6,0.1-1.1,0-1.6c-0.1-0.4-0.3-0.8-0.6-1c-0.3-0.3-0.6-0.5-1-0.6
			c-0.4-0.1-0.8-0.2-1.2-0.2s-0.8,0.1-1.2,0.2c-0.4,0.1-0.8,0.3-1.2,0.6c-0.4,0.3-0.7,0.6-1,1c-0.3,0.4-0.5,0.9-0.6,1.6l-0.6,3.1
			c-0.1,0.6-0.1,1.1,0,1.6c0.1,0.4,0.3,0.8,0.6,1.1c0.3,0.3,0.6,0.5,1,0.6c0.4,0.1,0.8,0.2,1.2,0.2c0.4,0,0.8-0.1,1.2-0.2
			c0.4-0.1,0.8-0.3,1.2-0.6c0.4-0.3,0.7-0.6,1-1.1c0.3-0.4,0.5-1,0.6-1.6L382.8,232.8z"/>
		<path class="st23" d="M393.7,241.6c-1.5,0-2.7-0.4-3.4-1.2c-0.7-0.8-1-2-0.7-3.6l1.5-7.4h-2.8l0.4-2.2h9.3l-0.4,2.2h-4l-1.4,6.9
			c-0.1,0.6-0.1,1.1-0.1,1.5c0.1,0.4,0.2,0.7,0.4,0.9c0.2,0.2,0.5,0.4,0.8,0.5c0.3,0.1,0.7,0.1,1.1,0.1h1.2l-0.4,2.3H393.7z"/>
		<path class="st23" d="M409.2,238.8c-0.5,0.6-1,1.2-1.7,1.6c-0.6,0.4-1.4,0.7-2.1,1c-0.8,0.2-1.5,0.3-2.2,0.3s-1.4-0.1-2.1-0.3
			c-0.7-0.2-1.2-0.5-1.7-1c-0.5-0.4-0.8-1-1-1.6c-0.2-0.6-0.2-1.4-0.1-2.2l0.9-4.4c0.2-0.8,0.5-1.6,0.9-2.2c0.5-0.6,1-1.2,1.7-1.6
			c0.6-0.4,1.4-0.8,2.1-1c0.8-0.2,1.5-0.3,2.2-0.3c0.7,0,1.4,0.1,2.1,0.3c0.7,0.2,1.2,0.6,1.7,1c0.5,0.4,0.8,1,1,1.6
			c0.2,0.6,0.3,1.4,0.1,2.2l-0.9,4.4C410,237.4,409.7,238.2,409.2,238.8z M408.5,232.8c0.1-0.6,0.1-1.1,0-1.6
			c-0.1-0.4-0.3-0.8-0.6-1.1c-0.3-0.3-0.6-0.5-1-0.6c-0.4-0.1-0.8-0.2-1.2-0.2c-0.4,0-0.8,0.1-1.2,0.2c-0.4,0.1-0.8,0.3-1.2,0.6
			c-0.4,0.3-0.7,0.6-1,1.1c-0.3,0.4-0.5,1-0.6,1.6l-0.6,3.2c-0.1,0.6-0.1,1.1,0,1.6c0.1,0.4,0.3,0.8,0.6,1.1s0.6,0.5,1,0.6
			c0.4,0.1,0.8,0.2,1.2,0.2c0.4,0,0.8-0.1,1.3-0.2c0.4-0.1,0.8-0.3,1.2-0.6c0.4-0.3,0.7-0.6,1-1.1c0.3-0.4,0.5-1,0.6-1.6
			L408.5,232.8z"/>
		<path class="st23" d="M430.3,238.8c-0.4,0.6-0.9,1.2-1.5,1.6c-0.6,0.4-1.3,0.7-2.1,1c-0.8,0.2-1.6,0.3-2.5,0.3
			c-0.7,0-1.4-0.1-2.1-0.3s-1.2-0.5-1.7-1c-0.5-0.4-0.8-1-1-1.6c-0.2-0.6-0.2-1.4-0.1-2.2l0.8-3.8c0.2-1.1,0.7-2,1.4-2.8
			c0.7-0.8,1.6-1.3,2.5-1.7c-0.7-0.4-1.1-0.9-1.3-1.4c-0.2-0.5-0.2-1-0.1-1.5c0.1-0.7,0.4-1.2,0.7-1.8c0.4-0.5,0.8-0.9,1.3-1.3
			c0.5-0.4,1.1-0.6,1.7-0.8c0.6-0.2,1.3-0.3,2-0.3c1,0,1.9,0.1,2.6,0.3c0.8,0.2,1.4,0.5,2.1,0.9l-1.5,1.9c-0.5-0.4-1.1-0.6-1.6-0.8
			c-0.5-0.1-1.1-0.2-1.8-0.2c-0.3,0-0.6,0-1,0.1c-0.3,0.1-0.6,0.2-0.9,0.4c-0.3,0.2-0.5,0.4-0.7,0.6c-0.2,0.2-0.3,0.5-0.4,0.9
			c-0.1,0.3,0,0.6,0.3,0.9c0.2,0.3,0.5,0.5,0.8,0.6c0.4,0.2,0.8,0.3,1.2,0.5c0.4,0.2,0.8,0.3,1.2,0.5c0.5,0.1,1,0.3,1.5,0.6
			c0.5,0.3,0.8,0.6,1.1,1.1c0.3,0.4,0.5,0.9,0.6,1.4s0.1,1.1,0,1.8l-0.8,3.8C431,237.4,430.7,238.2,430.3,238.8z M429.4,233.3
			c0.1-0.6,0.1-1.1,0-1.6c-0.1-0.4-0.3-0.8-0.6-1.1c-0.3-0.3-0.6-0.5-1-0.6c-0.4-0.1-0.8-0.2-1.2-0.2c-0.4,0-0.8,0.1-1.3,0.2
			c-0.4,0.1-0.9,0.3-1.2,0.6c-0.4,0.3-0.7,0.6-1,1.1c-0.3,0.4-0.5,1-0.6,1.6l-0.5,2.7c-0.1,0.6-0.1,1.1,0,1.6
			c0.1,0.4,0.3,0.8,0.6,1.1c0.3,0.3,0.6,0.5,1,0.6c0.4,0.1,0.8,0.2,1.2,0.2c0.4,0,0.8-0.1,1.3-0.2c0.4-0.1,0.8-0.3,1.2-0.6
			c0.4-0.3,0.7-0.6,1-1.1c0.3-0.4,0.5-1,0.6-1.6L429.4,233.3z"/>
		<path class="st23" d="M439,227.2l-1.9,10c-0.1,0.7-0.1,1.2,0.2,1.6c0.2,0.4,0.8,0.6,1.6,0.6h0.1l-0.5,2.3h-0.6
			c-0.6,0-1.1-0.1-1.6-0.3c-0.5-0.2-0.9-0.4-1.2-0.7s-0.5-0.7-0.7-1.2c-0.1-0.5-0.1-1.1,0-1.8l2-10.5H439z"/>
		<path class="st23" d="M450.4,241.6l-3.2-6.6l-2.8,2.6l-0.8,4h-2.5l2.8-14.4h2.5l-1.3,6.8l7.3-6.8h3.1l-6.3,5.9l4.1,8.5H450.4z"/>
		<path class="st23" d="M466.6,238.8c-0.5,0.6-1,1.2-1.7,1.6c-0.6,0.4-1.4,0.7-2.1,1c-0.8,0.2-1.5,0.3-2.2,0.3
			c-0.7,0-1.4-0.1-2.1-0.3c-0.7-0.2-1.2-0.5-1.7-1c-0.5-0.4-0.8-1-1-1.6c-0.2-0.6-0.2-1.4-0.1-2.2l0.9-4.4c0.2-0.8,0.5-1.6,0.9-2.2
			c0.5-0.6,1-1.2,1.7-1.6c0.6-0.4,1.4-0.8,2.1-1c0.8-0.2,1.5-0.3,2.2-0.3c0.7,0,1.4,0.1,2.1,0.3c0.7,0.2,1.2,0.6,1.7,1
			c0.5,0.4,0.8,1,1,1.6c0.2,0.6,0.3,1.4,0.1,2.2l-0.9,4.4C467.4,237.4,467.1,238.2,466.6,238.8z M465.9,232.8c0.1-0.6,0.1-1.1,0-1.6
			c-0.1-0.4-0.3-0.8-0.6-1.1c-0.3-0.3-0.6-0.5-1-0.6c-0.4-0.1-0.8-0.2-1.2-0.2c-0.4,0-0.8,0.1-1.2,0.2c-0.4,0.1-0.8,0.3-1.2,0.6
			c-0.4,0.3-0.7,0.6-1,1.1c-0.3,0.4-0.5,1-0.6,1.6l-0.6,3.2c-0.1,0.6-0.1,1.1,0,1.6c0.1,0.4,0.3,0.8,0.6,1.1s0.6,0.5,1,0.6
			c0.4,0.1,0.8,0.2,1.2,0.2c0.4,0,0.8-0.1,1.3-0.2c0.4-0.1,0.8-0.3,1.2-0.6c0.4-0.3,0.7-0.6,1-1.1c0.3-0.4,0.5-1,0.6-1.6
			L465.9,232.8z M464.3,225.4h-1.9l3.5-4.2h3L464.3,225.4z"/>
		<path class="st23" d="M488.2,229.4c0.4,0.3,0.6,0.7,0.8,1.2c0.2,0.5,0.2,1.1,0.1,1.7l-0.8,4.3c-0.2,0.8-0.5,1.6-1,2.2
			c-0.5,0.6-1,1.2-1.7,1.6c-0.6,0.4-1.3,0.7-2.1,1c-0.8,0.2-1.5,0.3-2.2,0.3s-1.4-0.1-2.1-0.3c-0.7-0.2-1.2-0.5-1.7-1
			c-0.5-0.4-0.8-1-1-1.6c-0.2-0.6-0.2-1.4-0.1-2.2l0.8-4.3c0.2-0.8,0.5-1.6,0.9-2.2c0.4-0.6,1-1.2,1.6-1.6c0.6-0.4,1.3-0.8,2.1-1
			c0.8-0.2,1.6-0.3,2.4-0.3h7.2l-0.4,2.2H488.2z M486.5,232.8c0.1-0.6,0.1-1.1,0-1.6c-0.1-0.4-0.3-0.8-0.6-1c-0.3-0.3-0.6-0.5-1-0.6
			c-0.4-0.1-0.8-0.2-1.2-0.2s-0.8,0.1-1.2,0.2c-0.4,0.1-0.8,0.3-1.2,0.6c-0.4,0.3-0.7,0.6-1,1c-0.3,0.4-0.5,0.9-0.6,1.6L479,236
			c-0.1,0.6-0.1,1.1,0,1.6c0.1,0.4,0.3,0.8,0.6,1.1c0.3,0.3,0.6,0.5,1,0.6c0.4,0.1,0.8,0.2,1.2,0.2c0.4,0,0.8-0.1,1.2-0.2
			c0.4-0.1,0.8-0.3,1.2-0.6c0.4-0.3,0.7-0.6,1-1.1c0.3-0.4,0.5-1,0.6-1.6L486.5,232.8z"/>
		<path class="st23" d="M502.4,238.8c-0.5,0.6-1,1.2-1.7,1.6c-0.6,0.4-1.4,0.7-2.1,1c-0.8,0.2-1.5,0.3-2.2,0.3
			c-0.7,0-1.4-0.1-2.1-0.3s-1.2-0.5-1.7-1s-0.8-1-1-1.6c-0.2-0.6-0.2-1.4-0.1-2.2l0.9-4.4c0.2-0.8,0.5-1.6,0.9-2.2
			c0.5-0.6,1-1.2,1.7-1.6c0.6-0.4,1.4-0.8,2.1-1c0.8-0.2,1.5-0.3,2.2-0.3c0.7,0,1.4,0.1,2.1,0.3c0.7,0.2,1.2,0.6,1.7,1
			c0.5,0.4,0.8,1,1,1.6c0.2,0.6,0.3,1.4,0.1,2.2l-0.9,4.4C503.2,237.4,502.9,238.2,502.4,238.8z M501.7,232.8c0.1-0.6,0.1-1.1,0-1.6
			c-0.1-0.4-0.3-0.8-0.6-1.1c-0.3-0.3-0.6-0.5-1-0.6c-0.4-0.1-0.8-0.2-1.2-0.2c-0.4,0-0.8,0.1-1.2,0.2c-0.4,0.1-0.8,0.3-1.2,0.6
			c-0.4,0.3-0.7,0.6-1,1.1c-0.3,0.4-0.5,1-0.6,1.6l-0.6,3.2c-0.1,0.6-0.1,1.1,0,1.6c0.1,0.4,0.3,0.8,0.6,1.1s0.6,0.5,1,0.6
			c0.4,0.1,0.8,0.2,1.2,0.2s0.8-0.1,1.3-0.2c0.4-0.1,0.8-0.3,1.2-0.6s0.7-0.6,1-1.1c0.3-0.4,0.5-1,0.6-1.6L501.7,232.8z"/>
		<path class="st23" d="M517.1,238.8c-0.4,0.6-0.9,1.2-1.6,1.6c-0.6,0.4-1.3,0.7-2.1,1c-0.8,0.2-1.6,0.3-2.5,0.3
			c-0.7,0-1.4-0.1-2.1-0.3c-0.7-0.2-1.2-0.5-1.7-1c-0.5-0.4-0.8-1-1-1.6c-0.2-0.6-0.2-1.4-0.1-2.2l1.8-9.4h2.5l-1.7,8.8
			c-0.1,0.6-0.1,1.1,0,1.6c0.1,0.4,0.3,0.8,0.6,1.1c0.3,0.3,0.6,0.5,1,0.6c0.4,0.1,0.8,0.2,1.2,0.2s0.8-0.1,1.2-0.2
			c0.4-0.1,0.8-0.3,1.2-0.6c0.4-0.3,0.7-0.6,1-1.1c0.3-0.4,0.5-1,0.6-1.6l1.7-8.8h2.5l-1.8,9.4C517.8,237.4,517.5,238.2,517.1,238.8
			z"/>
		<path class="st23" d="M535.5,241.6l2.4-12.2h-6.9l-2.4,12.2h-2.5l2.8-14.4h11.8l-2.8,14.4H535.5z"/>
		<path class="st23" d="M549.4,241.2c-1,0.3-2,0.4-2.9,0.4c-0.8,0-1.5-0.1-2.2-0.3s-1.2-0.5-1.6-0.9c-0.4-0.4-0.7-0.9-0.9-1.4
			s-0.2-1.1-0.1-1.8c0-0.2,0.1-0.5,0.2-0.8c0.1-0.3,0.3-0.6,0.5-0.9c0.2-0.3,0.5-0.6,0.8-0.8c0.3-0.3,0.7-0.5,1.2-0.6
			c-0.4-0.2-0.7-0.4-1-0.6c-0.2-0.2-0.4-0.5-0.4-0.7c-0.1-0.3-0.1-0.5-0.1-0.8c0-0.3,0-0.5,0.1-0.7c0.1-0.5,0.3-1,0.6-1.6
			c0.3-0.5,0.8-1,1.3-1.4c0.5-0.4,1.2-0.7,1.9-1c0.7-0.3,1.6-0.4,2.5-0.4c0.9,0,1.8,0.2,2.7,0.5c0.9,0.3,1.6,0.8,2.2,1.4l-1.8,1.7
			c-0.4-0.4-0.9-0.8-1.6-1c-0.6-0.2-1.3-0.3-1.8-0.3c-0.3,0-0.7,0-1.1,0.1c-0.4,0.1-0.8,0.2-1.1,0.4c-0.4,0.2-0.7,0.4-0.9,0.6
			c-0.3,0.3-0.4,0.6-0.5,0.9c-0.1,0.6,0,1,0.5,1.3s1.1,0.5,2.1,0.5h1.9l-0.4,1.9h-2.1c-0.8,0-1.5,0.2-2.2,0.5s-1,0.9-1.2,1.6
			c-0.1,0.4,0,0.7,0.2,1c0.2,0.3,0.5,0.5,0.8,0.7c0.3,0.2,0.7,0.3,1.1,0.3c0.4,0.1,0.7,0.1,1,0.1c0.6,0,1.2-0.1,1.9-0.3
			c0.7-0.2,1.4-0.6,2-1.1l1.2,1.9C551.4,240.5,550.5,241,549.4,241.2z"/>
		<path class="st23" d="M565.7,238.8c-0.4,0.6-0.9,1.2-1.5,1.6s-1.3,0.7-2.1,1c-0.8,0.2-1.6,0.3-2.5,0.3c-0.7,0-1.4-0.1-2.1-0.3
			c-0.7-0.2-1.2-0.5-1.7-1c-0.5-0.4-0.8-1-1-1.6c-0.2-0.6-0.2-1.4-0.1-2.2l0.8-3.8c0.2-1.1,0.7-2,1.4-2.8c0.7-0.8,1.6-1.3,2.5-1.7
			c-0.7-0.4-1.1-0.9-1.3-1.4c-0.2-0.5-0.2-1-0.1-1.5c0.1-0.7,0.4-1.2,0.7-1.8c0.4-0.5,0.8-0.9,1.3-1.3c0.5-0.4,1.1-0.6,1.7-0.8
			c0.6-0.2,1.3-0.3,2-0.3c1,0,1.9,0.1,2.6,0.3s1.4,0.5,2.1,0.9l-1.5,1.9c-0.5-0.4-1.1-0.6-1.6-0.8c-0.5-0.1-1.1-0.2-1.8-0.2
			c-0.3,0-0.6,0-1,0.1c-0.3,0.1-0.6,0.2-0.9,0.4c-0.3,0.2-0.5,0.4-0.7,0.6c-0.2,0.2-0.3,0.5-0.4,0.9c-0.1,0.3,0,0.6,0.3,0.9
			c0.2,0.3,0.5,0.5,0.8,0.6c0.4,0.2,0.8,0.3,1.2,0.5c0.4,0.2,0.8,0.3,1.2,0.5c0.5,0.1,1,0.3,1.5,0.6c0.5,0.3,0.8,0.6,1.1,1.1
			c0.3,0.4,0.5,0.9,0.6,1.4s0.1,1.1,0,1.8l-0.8,3.8C566.4,237.4,566.1,238.2,565.7,238.8z M564.8,233.3c0.1-0.6,0.1-1.1,0-1.6
			c-0.1-0.4-0.3-0.8-0.6-1.1c-0.3-0.3-0.6-0.5-1-0.6c-0.4-0.1-0.8-0.2-1.2-0.2c-0.4,0-0.8,0.1-1.3,0.2c-0.4,0.1-0.9,0.3-1.2,0.6
			c-0.4,0.3-0.7,0.6-1,1.1c-0.3,0.4-0.5,1-0.6,1.6l-0.5,2.7c-0.1,0.6-0.1,1.1,0,1.6c0.1,0.4,0.3,0.8,0.6,1.1c0.3,0.3,0.6,0.5,1,0.6
			c0.4,0.1,0.8,0.2,1.2,0.2s0.8-0.1,1.3-0.2c0.4-0.1,0.8-0.3,1.2-0.6c0.4-0.3,0.7-0.6,1-1.1c0.3-0.4,0.5-1,0.6-1.6L564.8,233.3z"/>
		<path class="st23" d="M574.4,227.2l-1.9,10c-0.1,0.7-0.1,1.2,0.2,1.6c0.2,0.4,0.8,0.6,1.6,0.6h0.1l-0.5,2.3h-0.6
			c-0.6,0-1.1-0.1-1.6-0.3c-0.5-0.2-0.9-0.4-1.2-0.7c-0.3-0.3-0.5-0.7-0.7-1.2c-0.1-0.5-0.1-1.1,0-1.8l2-10.5H574.4z M574,225.4h-2
			l3.5-4.2h3L574,225.4z"/>
		<path class="st23" d="M587.9,238.8c-0.5,0.6-1,1.2-1.7,1.6c-0.6,0.4-1.4,0.7-2.1,1c-0.8,0.2-1.5,0.3-2.2,0.3
			c-0.7,0-1.4-0.1-2.1-0.3c-0.7-0.2-1.2-0.5-1.7-1s-0.8-1-1-1.6c-0.2-0.6-0.2-1.4-0.1-2.2l0.9-4.4c0.2-0.8,0.5-1.6,0.9-2.2
			c0.5-0.6,1-1.2,1.7-1.6c0.6-0.4,1.4-0.8,2.1-1c0.8-0.2,1.5-0.3,2.2-0.3c0.7,0,1.4,0.1,2.1,0.3c0.7,0.2,1.2,0.6,1.7,1
			c0.5,0.4,0.8,1,1,1.6c0.2,0.6,0.3,1.4,0.1,2.2l-0.9,4.4C588.7,237.4,588.4,238.2,587.9,238.8z M587.2,232.8c0.1-0.6,0.1-1.1,0-1.6
			s-0.3-0.8-0.6-1.1c-0.3-0.3-0.6-0.5-1-0.6c-0.4-0.1-0.8-0.2-1.2-0.2c-0.4,0-0.8,0.1-1.2,0.2c-0.4,0.1-0.8,0.3-1.2,0.6
			c-0.4,0.3-0.7,0.6-1,1.1c-0.3,0.4-0.5,1-0.6,1.6l-0.6,3.2c-0.1,0.6-0.1,1.1,0,1.6c0.1,0.4,0.3,0.8,0.6,1.1s0.6,0.5,1,0.6
			c0.4,0.1,0.8,0.2,1.2,0.2c0.4,0,0.8-0.1,1.3-0.2c0.4-0.1,0.8-0.3,1.2-0.6s0.7-0.6,1-1.1c0.3-0.4,0.5-1,0.6-1.6L587.2,232.8z"/>
	</g>
</g>
</svg>
